# xmcd CD database file
#
# Track frame offsets:
#	150
#	11341
#	22257
#	32591
#	44375
#	53204
#	68176
#	85387
#	97137
#	107542
#	124299
#	148166
#	173420
#	185662
#	193108
#	217994
#
# Disc length: 3261 seconds
#
# Revision: 4
# Processed by: cddbd v1.5.2PL0 Copyright (c) Steve Scherf et al.
# Submitted via: CDex 1.51
#
DISCID=e50cbb10
DTITLE=Eric Clapton and The Yardbirds - Eric Clapton and The Yardbirds
DYEAR=2002
DGENRE=Blues
TTITLE0=For Your Love
TTITLE1=Boom Boom
TTITLE2=A Certain Girl
TTITLE3=I'm a Man
TTITLE4=Talkin' Bout You
TTITLE5=Highway 69
TTITLE6=My Little Cabin
TTITLE7=Got to Hurry (Take 4)
TTITLE8=Putty (In Your Hands)
TTITLE9=Louise
TTITLE10=Five Long Years
TTITLE11=Smokestack Lightning
TTITLE12=Good Morning Little Schoolgirl
TTITLE13=Got Love If You Want It
TTITLE14=Respectable
TTITLE15=I Wish You Would
EXTD=YEAR: 2002
EXTT0=
EXTT1=
EXTT2=
EXTT3=
EXTT4=
EXTT5=
EXTT6=
EXTT7=
EXTT8=
EXTT9=
EXTT10=
EXTT11=
EXTT12=
EXTT13=
EXTT14=
EXTT15=
PLAYORDER=
